Coordinates
version=1
nRows=19
nColumns=33
inDegrees=yes

Units are S.I. units (second, meters, Newtons, ...)
Angles are in degrees.

endheader
time	ground_thorax_rot_x	ground_thorax_rot_y	ground_thorax_rot_z	ground_thorax_tx	ground_thorax_ty	ground_thorax_tz	clav_prot_r	clav_elev_r	scapula_abduction_r	scapula_elevation_r	scapula_upward_rot_r	scapula_winging_r	shoulder_elv_r	plane_of_elev_r	axial_rot_r	elbow_flexion_r	pro_sup_r	wrist_flex_r	wrist_dev_r	clav_prot_l	clav_elev_l	scapula_abduction_l	scapula_elevation_l	scapula_upward_rot_l	scapula_winging_l	shoulder_elv_l	plane_of_elev_l	axial_rot_l	elbow_flexion_l	pro_sup_l	wrist_flex_l	wrist_dev_l	
8.0200	29.561785	25.844089	34.808723	-89.628075	849.995204	-43.552437	12.742604	34.038519	26.388429	45.000000	-45.000000	-1170.114780	-4065.895220	159.026856	23.378910	1439.199399	163.749414	15.402718	14.163357	-6.603102	-45.000000	-39.862050	45.000000	-45.000000	-3493.272209	-448.383048	135.606162	-133.222622	349.363560	35.250874	14.363196	-17.672747	
8.0300	29.577493	25.722715	34.673454	-90.833931	851.549480	-43.810312	12.702112	34.002811	26.336026	45.000000	-45.000000	-1170.176816	-4065.848864	159.018966	23.406359	1439.124613	163.992771	15.599727	14.113166	-6.473715	-45.000000	-39.960872	45.000000	-45.000000	-3493.179539	-448.352262	135.570193	-133.156481	349.357269	35.290120	14.369656	-17.771581	
8.0400	29.585972	25.614066	34.555203	-91.957499	852.978102	-44.058709	12.661166	33.966617	26.276363	45.000000	-45.000000	-1170.228721	-4065.801824	159.017611	23.451476	1439.052794	164.358739	15.821715	14.052987	-6.349478	-45.000000	-40.056509	45.000000	-45.000000	-3493.089520	-448.331527	135.538379	-133.111755	349.349426	35.365314	14.370744	-17.881397	
8.0500	29.588706	25.519468	34.461250	-92.996774	854.275728	-44.295293	12.622006	33.931011	26.217362	45.000000	-45.000000	-1170.274211	-4065.755333	159.025814	23.507731	1438.984676	164.842505	16.063883	13.982161	-6.247342	-45.000000	-40.133767	45.000000	-45.000000	-3493.017130	-448.315058	135.525894	-133.095764	349.344911	35.477976	14.357768	-18.000991	
8.0600	29.582787	25.437940	34.389828	-93.949995	855.438411	-44.518362	12.584431	33.895861	26.154785	45.000000	-45.000000	-1170.308399	-4065.710532	159.041503	23.570461	1438.921126	165.434306	16.319608	13.901648	-6.153960	-45.000000	-40.205619	45.000000	-45.000000	-3492.944052	-448.308335	135.517781	-133.103050	349.342007	35.631175	14.341019	-18.133665	
8.0700	29.574440	25.367551	34.339446	-94.815826	856.463338	-44.726842	12.547430	33.862686	26.097023	45.000000	-45.000000	-1170.336354	-4065.670771	159.062948	23.635934	1438.863422	166.119192	16.581324	13.814342	-6.080625	-45.000000	-40.255167	45.000000	-45.000000	-3492.887041	-448.308194	135.527340	-133.137135	349.344004	35.824577	14.307124	-18.274878	
8.0800	29.563177	25.304548	34.306047	-95.593789	857.348625	-44.920221	12.514133	33.832429	26.039694	45.000000	-45.000000	-1170.352050	-4065.636421	159.085277	23.699461	1438.814574	166.878200	16.840062	13.718547	-6.019420	-45.000000	-40.290765	45.000000	-45.000000	-3492.825228	-448.316433	135.535537	-133.191112	349.350228	36.058698	14.271027	-18.429691	
8.0900	29.555975	25.248194	34.283008	-96.284481	858.093224	-45.098395	12.480007	33.804206	25.987072	45.000000	-45.000000	-1170.361337	-4065.608461	159.107968	23.759232	1438.771006	167.688925	17.091055	13.621161	-5.973114	-45.000000	-40.306671	45.000000	-45.000000	-3492.780598	-448.336753	135.557808	-133.263686	349.363896	36.328710	14.211373	-18.590566	
8.1000	29.545472	25.203786	34.275881	-96.889480	858.696941	-45.261471	12.451438	33.779421	25.928812	45.000000	-45.000000	-1170.362171	-4065.586929	159.127377	23.807325	1438.734342	168.526131	17.326175	13.514470	-5.937389	-45.000000	-40.315128	45.000000	-45.000000	-3492.729740	-448.362487	135.572656	-133.347386	349.376062	36.632777	14.151643	-18.761738	
8.1100	29.538533	25.170019	34.279799	-97.410752	859.160673	-45.409579	12.418890	33.755134	25.877819	45.000000	-45.000000	-1170.357934	-4065.573089	159.151601	23.843341	1438.704258	169.368963	17.542243	13.408842	-5.909206	-45.000000	-40.313741	45.000000	-45.000000	-3492.702056	-448.400949	135.607078	-133.445082	349.392518	36.961548	14.057690	-18.931209	
8.1200	29.525949	25.149895	34.305156	-97.850059	859.486983	-45.542850	12.393135	33.734369	25.824138	45.000000	-45.000000	-1170.346027	-4065.568267	159.173749	23.861249	1438.684758	170.198366	17.732458	13.293078	-5.892504	-45.000000	-40.310022	45.000000	-45.000000	-3492.666307	-448.439174	135.635170	-133.552294	349.408780	37.311770	13.966706	-19.110324	
8.1300	29.521182	25.134892	34.336831	-98.208058	859.680686	-45.661486	12.364181	33.716307	25.779045	45.000000	-45.000000	-1170.328719	-4065.570375	159.195528	23.865047	1438.672918	170.996291	17.899446	13.180035	-5.880086	-45.000000	-40.297127	45.000000	-45.000000	-3492.652211	-448.485743	135.677030	-133.668736	349.431316	37.669331	13.841754	-19.291030	
8.1400	29.511960	25.133039	34.389762	-98.484201	859.749440	-45.766097	12.346393	33.703884	25.728501	45.000000	-45.000000	-1170.308236	-4065.580521	159.207779	23.848772	1438.670038	171.743531	18.037280	13.057452	-5.881774	-45.000000	-40.285543	45.000000	-45.000000	-3492.621129	-448.525212	135.700547	-133.784106	349.453749	38.029280	13.738036	-19.488125	
8.1500	29.512704	25.137796	34.449037	-98.676734	859.703529	-45.858000	12.326538	33.693845	25.690683	45.000000	-45.000000	-1170.284464	-4065.595440	159.221541	23.816244	1438.672814	172.429796	18.152846	12.943294	-5.884352	-45.000000	-40.265396	45.000000	-45.000000	-3492.615812	-448.570497	135.736977	-133.901270	349.480784	38.376893	13.602044	-19.683702	
8.1600	29.512466	25.153125	34.523691	-98.783622	859.555496	-45.939467	12.318201	33.689055	25.648071	45.000000	-45.000000	-1170.258473	-4065.617350	159.223157	23.766429	1438.679036	173.047837	18.243994	12.827792	-5.898767	-45.000000	-40.248678	45.000000	-45.000000	-3492.593873	-448.611257	135.752004	-134.007178	349.509368	38.709228	13.494962	-19.896987	
8.1700	29.525642	25.173134	34.598933	-98.803302	859.319235	-46.013497	12.308030	33.685173	25.616866	45.000000	-45.000000	-1170.228528	-4065.640804	159.225077	23.703061	1438.683276	173.597343	18.321991	12.728127	-5.908742	-45.000000	-40.217696	45.000000	-45.000000	-3492.603887	-448.656294	135.780271	-134.107299	349.540293	39.013056	13.353595	-20.101296	
8.1800	29.537370	25.201737	34.687377	-98.736120	859.008968	-46.083456	12.308086	33.685948	25.584661	45.000000	-45.000000	-1170.196524	-4065.671344	159.216076	23.624918	1438.690305	174.080762	18.381822	12.631903	-5.930630	-45.000000	-40.196509	45.000000	-45.000000	-3492.594141	-448.697682	135.788495	-134.187225	349.572574	39.288536	13.253844	-20.322652	
8.1900	29.563615	25.232836	34.772617	-98.585202	858.637958	-46.152487	12.303636	33.686525	25.569692	45.000000	-45.000000	-1170.160263	-4065.703572	159.212840	23.534673	1438.695237	174.509391	18.437216	12.556595	-5.945091	-45.000000	-40.161495	45.000000	-45.000000	-3492.619136	-448.743561	135.814508	-134.256435	349.605189	39.527109	13.120612	-20.522249	
8.2000	29.586989	25.270510	34.868221	-98.357094	858.217632	-46.222980	12.307781	33.690943	25.554664	45.000000	-45.000000	-1170.123025	-4065.743116	159.199723	23.429468	1438.702792	174.890293	18.481748	12.484938	-5.971979	-45.000000	-40.140412	45.000000	-45.000000	-3492.621524	-448.784566	135.823090	-134.303020	349.637555	39.733225	13.036817	-20.735847	
